<svg width="24" height="24" viewBox="0 0 24 24" fill="none" xmlns="http://www.w3.org/2000/svg">
<path fill-rule="evenodd" clip-rule="evenodd" d="M7.19999 2.3999C4.54903 2.3999 2.39999 4.54894 2.39999 7.19991V16.3999C2.39999 19.0509 4.54903 21.1999 7.2 21.1999H16.4C19.051 21.1999 21.2 19.0509 21.2 16.3999V7.1999C21.2 4.54894 19.051 2.3999 16.4 2.3999H7.19999ZM3.59999 7.19991C3.59999 5.21168 5.21177 3.5999 7.19999 3.5999H16.4C18.3882 3.5999 20 5.21168 20 7.1999V16.3999C20 18.3881 18.3882 19.9999 16.4 19.9999H13.6592V19.994V19.9799V19.9658V19.9516V19.9374V19.9231V19.9087V19.8944V19.8799V19.8655V19.8509V19.8364V19.8217V19.8071V19.7923V19.7776V19.7628V19.7479V19.733V19.718V19.703V19.688V19.6729V19.6578V19.6426V19.6274V19.6121V19.5968V19.5814V19.566V19.5506V19.5351V19.5195V19.504V19.4883V19.4727V19.457V19.4412V19.4254V19.4096V19.3937V19.3778V19.3619V19.3459V19.3298V19.3138V19.2976V19.2815V19.2653V19.2491V19.2328V19.2165V19.2001V19.1837V19.1673V19.1508V19.1343V19.1178V19.1012V19.0846V19.0679V19.0512V19.0345V19.0177V19.0009V18.9841V18.9672V18.9503V18.9333V18.9164V18.8994V18.8823V18.8652V18.8481V18.831V18.8138V18.7965V18.7793V18.762V18.7447V18.7273V18.71V18.6926V18.6751V18.6576V18.6401V18.6226V18.605V18.5874V18.5698V18.5521V18.5344V18.5167V18.4989V18.4812V18.4633V18.4455V18.4276V18.4097V18.3918V18.3739V18.3559V18.3379V18.3198V18.3018V18.2837V18.2656V18.2474V18.2293V18.2111V18.1928V18.1746V18.1563V18.138V18.1197V18.1014V18.083V18.0646V18.0462V18.0277V18.0093V17.9908V17.9723V17.9537V17.9352V17.9166V17.898V17.8794V17.8607V17.842V17.8233V17.8046V17.7859V17.7672V17.7484V17.7296V17.7108V17.6919V17.6731V17.6542V17.6353V17.6164V17.5975V17.5786V17.5596V17.5406V17.5216V17.5026V17.4836V17.4645V17.4454V17.4264V17.4073V17.3881V17.369V17.3499V17.3307V17.3115V17.2923V17.2731V17.2539V17.2347V17.2154V17.1961V17.1769V17.1576V17.1383V17.1189V17.0996V17.0803V17.0609V17.0416V17.0222V17.0028V16.9834V16.964V16.9445V16.9251V16.9057V16.8862V16.8667V16.8473V16.8278V16.8083V16.7888V16.7693V16.7497V16.7302V16.7107V16.6911V16.6716V16.652V16.6325V16.6129V16.5933V16.5737V16.5541V16.5345V16.5149V16.4953V16.4757V16.456V16.4364V16.4168V16.3971V16.3775V16.3579V16.3382V16.3186V16.2989V16.2792V16.2596V16.2399V16.2202V16.2006V16.1809V16.1612V16.1415V16.1219V16.1022V16.0825V16.0628V16.0431V16.0234V16.0038V15.9841V15.9644V15.9447V15.925V15.9054V15.8857V15.866V15.8463V15.8267V15.807V15.7873V15.7676V15.748V15.7283V15.7087V15.689V15.6694V15.6497V15.6301V15.6104V15.5908V15.5712V15.5516V15.5319V15.5123V15.4927V15.4731V15.4535V15.4339V15.4144V15.3948V15.3752V15.3557V15.3361V15.3166V15.297V15.2775V15.258V15.2385V15.219V15.1995V15.18V15.1605V15.1411V15.1216V15.1022V15.0827V15.0633V15.0439V15.0245V15.0051V14.9857V14.9664V14.947V14.9277V14.9083V14.889V14.8697V14.8504V14.8312V14.8119V14.7926V14.7734V14.7542V14.735V14.7158V14.6966V14.6775V14.6583V14.6392V14.6201V14.601V14.5819V14.5628V14.5438V14.5247V14.5057V14.4867V14.4678V14.4488V14.4299V14.4109V14.392V14.3731V14.3543V14.3354V14.3166V14.2978V14.279V14.2602V14.2415V14.2228V14.2041V14.1854V14.1667V14.1481V14.1294V14.1108V14.0923V14.0737V14.0552V14.0367V14.0182V13.9997V13.9813V13.9629V13.9445V13.9261V13.9078V13.8895V13.8712V13.8529V13.8347V13.8164V13.7982V13.7801V13.7619V13.7438V13.7257V13.7077V13.6897V13.6717V13.6594H15.3992V12.3394H13.6592V12.3251V12.3101V12.2951V12.2802V12.2654V12.2506V12.2358V12.2211V12.2064V12.1918V12.1773V12.1627V12.1483V12.1339V12.1195V12.1052V12.0909V12.0767V12.0625V12.0484V12.0343V12.0203V12.0063V11.9924V11.9785V11.9647V11.9509V11.9372V11.9235V11.9099V11.8963V11.8828V11.8694V11.856V11.8426V11.8293V11.8161V11.8029V11.7897V11.7767V11.7636V11.7507V11.7378V11.7249V11.7121V11.6993V11.6866V11.674V11.6614V11.6489V11.6364V11.624V11.6117V11.5994V11.5872V11.575V11.5629V11.5508V11.5388V11.5268V11.515V11.5031V11.4914V11.4797V11.468V11.4564V11.4449V11.4334V11.422V11.4107V11.3994C13.6592 10.4401 13.9868 9.94893 14.3478 9.67546C14.7412 9.37739 15.2799 9.25942 15.7992 9.25942V7.93941C15.1185 7.93941 14.2572 8.08805 13.5507 8.62329C12.8117 9.18312 12.3392 10.0919 12.3392 11.3994V11.4107V11.422V11.4334V11.4449V11.4564V11.468V11.4797V11.4914V11.5031V11.515V11.5268V11.5388V11.5508V11.5629V11.575V11.5872V11.5994V11.6117V11.624V11.6364V11.6489V11.6614V11.674V11.6866V11.6993V11.7121V11.7249V11.7378V11.7507V11.7636V11.7767V11.7897V11.8029V11.8161V11.8293V11.8426V11.856V11.8694V11.8828V11.8963V11.9099V11.9235V11.9372V11.9509V11.9647V11.9785V11.9924V12.0063V12.0203V12.0343V12.0484V12.0625V12.0767V12.0909V12.1052V12.1195V12.1339V12.1483V12.1627V12.1773V12.1918V12.2064V12.2211V12.2358V12.2506V12.2654V12.2802V12.2951V12.3101V12.3251V12.3394H10.9992V13.6594H12.3392V13.6717V13.6897V13.7077V13.7257V13.7438V13.7619V13.7801V13.7982V13.8164V13.8347V13.8529V13.8712V13.8895V13.9078V13.9261V13.9445V13.9629V13.9813V13.9997V14.0182V14.0367V14.0552V14.0737V14.0923V14.1108V14.1294V14.1481V14.1667V14.1854V14.2041V14.2228V14.2415V14.2602V14.279V14.2978V14.3166V14.3354V14.3543V14.3731V14.392V14.4109V14.4299V14.4488V14.4678V14.4867V14.5057V14.5247V14.5438V14.5628V14.5819V14.601V14.6201V14.6392V14.6583V14.6775V14.6966V14.7158V14.735V14.7542V14.7734V14.7926V14.8119V14.8312V14.8504V14.8697V14.889V14.9083V14.9277V14.947V14.9664V14.9857V15.0051V15.0245V15.0439V15.0633V15.0827V15.1022V15.1216V15.1411V15.1605V15.18V15.1995V15.219V15.2385V15.258V15.2775V15.297V15.3166V15.3361V15.3557V15.3752V15.3948V15.4144V15.4339V15.4535V15.4731V15.4927V15.5123V15.5319V15.5516V15.5712V15.5908V15.6104V15.6301V15.6497V15.6694V15.689V15.7087V15.7283V15.748V15.7676V15.7873V15.807V15.8267V15.8463V15.866V15.8857V15.9054V15.925V15.9447V15.9644V15.9841V16.0038V16.0234V16.0431V16.0628V16.0825V16.1022V16.1219V16.1415V16.1612V16.1809V16.2006V16.2202V16.2399V16.2596V16.2792V16.2989V16.3186V16.3382V16.3579V16.3775V16.3971V16.4168V16.4364V16.456V16.4757V16.4953V16.5149V16.5345V16.5541V16.5737V16.5933V16.6129V16.6325V16.652V16.6716V16.6911V16.7107V16.7302V16.7497V16.7693V16.7888V16.8083V16.8278V16.8473V16.8667V16.8862V16.9057V16.9251V16.9445V16.964V16.9834V17.0028V17.0222V17.0416V17.0609V17.0803V17.0996V17.1189V17.1383V17.1576V17.1769V17.1961V17.2154V17.2347V17.2539V17.2731V17.2923V17.3115V17.3307V17.3499V17.369V17.3881V17.4073V17.4264V17.4454V17.4645V17.4836V17.5026V17.5216V17.5406V17.5596V17.5786V17.5975V17.6164V17.6353V17.6542V17.6731V17.6919V17.7108V17.7296V17.7484V17.7672V17.7859V17.8046V17.8233V17.842V17.8607V17.8794V17.898V17.9166V17.9352V17.9537V17.9723V17.9908V18.0093V18.0277V18.0462V18.0646V18.083V18.1014V18.1197V18.138V18.1563V18.1746V18.1928V18.2111V18.2293V18.2474V18.2656V18.2837V18.3018V18.3198V18.3379V18.3559V18.3739V18.3918V18.4097V18.4276V18.4455V18.4633V18.4812V18.4989V18.5167V18.5344V18.5521V18.5698V18.5874V18.605V18.6226V18.6401V18.6576V18.6751V18.6926V18.71V18.7273V18.7447V18.762V18.7793V18.7965V18.8138V18.831V18.8481V18.8652V18.8823V18.8994V18.9164V18.9333V18.9503V18.9672V18.9841V19.0009V19.0177V19.0345V19.0512V19.0679V19.0846V19.1012V19.1178V19.1343V19.1508V19.1673V19.1837V19.2001V19.2165V19.2328V19.2491V19.2653V19.2815V19.2976V19.3138V19.3298V19.3459V19.3619V19.3778V19.3937V19.4096V19.4254V19.4412V19.457V19.4727V19.4883V19.504V19.5195V19.5351V19.5506V19.566V19.5814V19.5968V19.6121V19.6274V19.6426V19.6578V19.6729V19.688V19.703V19.718V19.733V19.7479V19.7628V19.7776V19.7923V19.8071V19.8217V19.8364V19.8509V19.8655V19.8799V19.8944V19.9087V19.9231V19.9374V19.9516V19.9658V19.9799V19.994V19.9999H7.2C5.21177 19.9999 3.59999 18.3881 3.59999 16.3999V7.19991Z" fill="#010101"/>
</svg>
