<svg width="24" height="24" viewBox="0 0 24 24" fill="none" xmlns="http://www.w3.org/2000/svg">
<path fill-rule="evenodd" clip-rule="evenodd" d="M2.39999 7.19991C2.39999 4.54894 4.54903 2.3999 7.19999 2.3999H16.4C19.051 2.3999 21.2 4.54894 21.2 7.1999V16.3999C21.2 19.0509 19.051 21.1999 16.4 21.1999H7.2C4.54903 21.1999 2.39999 19.0509 2.39999 16.3999V7.19991ZM7.19999 3.5999C5.21177 3.5999 3.59999 5.21168 3.59999 7.19991V16.3999C3.59999 18.3881 5.21177 19.9999 7.2 19.9999H16.4C18.3882 19.9999 20 18.3881 20 16.3999V7.1999C20 5.21168 18.3882 3.5999 16.4 3.5999H7.19999ZM11.8 8.3399C9.88909 8.3399 8.33999 9.889 8.33999 11.7999C8.33999 13.7108 9.88909 15.2599 11.8 15.2599C13.7109 15.2599 15.26 13.7108 15.26 11.7999C15.26 9.889 13.7109 8.3399 11.8 8.3399ZM7.25999 11.7999C7.25999 9.29253 9.29262 7.2599 11.8 7.2599C14.3074 7.2599 16.34 9.29253 16.34 11.7999C16.34 14.3073 14.3074 16.3399 11.8 16.3399C9.29262 16.3399 7.25999 14.3073 7.25999 11.7999ZM16.5 7.1999C16.9971 7.1999 17.4 6.79696 17.4 6.2999C17.4 5.80285 16.9971 5.3999 16.5 5.3999C16.0029 5.3999 15.6 5.80285 15.6 6.2999C15.6 6.79696 16.0029 7.1999 16.5 7.1999Z" fill="#010101"/>
</svg>
