<svg width="24" height="24" viewBox="0 0 24 24" fill="none" xmlns="http://www.w3.org/2000/svg">
<path fill-rule="evenodd" clip-rule="evenodd" d="M6.85106 4C4.17189 4 2 5.82897 2 8.08511V15.9149C2 18.171 4.1719 20 6.85107 20H16.1489C18.8281 20 21 18.171 21 15.9149V8.08511C21 5.82896 18.8281 4 16.1489 4H6.85106ZM3.28578 7.47137C3.62333 6.07337 5.0913 5.02128 6.85106 5.02128H16.1489C17.9087 5.02128 19.3767 6.07337 19.7142 7.47137L11.5 11.3369L3.28578 7.47137ZM3.21277 8.76324V15.9149C3.21277 17.607 4.84169 18.9787 6.85107 18.9787H16.1489C18.1583 18.9787 19.7872 17.607 19.7872 15.9149V8.76324L11.7555 12.5429C11.5937 12.619 11.4063 12.619 11.2445 12.5429L3.21277 8.76324Z" fill="black"/>
</svg>
