<svg width="25" height="24" viewBox="0 0 25 24" fill="none" xmlns="http://www.w3.org/2000/svg">
<path fill-rule="evenodd" clip-rule="evenodd" d="M8.92858 4H16.0714C16.7029 4 17.3085 4.24082 17.755 4.66947C18.2015 5.09812 18.4524 5.67951 18.4524 6.28571V17.7143C18.4524 18.3205 18.2015 18.9019 17.755 19.3305C17.3085 19.7592 16.7029 20 16.0714 20H8.92858C8.29711 20 7.6915 19.7592 7.24499 19.3305C6.79847 18.9019 6.54762 18.3205 6.54762 17.7143V6.28571C6.54762 5.67951 6.79847 5.09812 7.24499 4.66947C7.6915 4.24082 8.29711 4 8.92858 4V4Z" stroke="black" stroke-linecap="round" stroke-linejoin="round"/>
<path d="M12.5 17.7144C13.1575 17.7144 13.6905 17.2028 13.6905 16.5716C13.6905 15.9404 13.1575 15.4287 12.5 15.4287C11.8425 15.4287 11.3095 15.9404 11.3095 16.5716C11.3095 17.2028 11.8425 17.7144 12.5 17.7144Z" fill="black"/>
</svg>
