<svg width="304" height="240" viewBox="0 0 304 240" fill="none" xmlns="http://www.w3.org/2000/svg">
<path d="M274.6 48.7036C278.256 55.0356 278.503 63.0612 275.623 72.2813C272.742 81.5026 266.761 91.8157 258.131 102.583C240.876 124.112 213.168 147.288 179.086 166.965C145.004 186.643 111.08 199.05 83.8072 203.229C70.1676 205.319 58.2455 205.342 48.8193 203.226C39.3944 201.11 32.5675 196.884 28.9117 190.552C25.256 184.22 25.009 176.194 27.8891 166.974C30.7697 157.753 36.7511 147.44 45.3808 136.672C62.6361 115.143 90.3435 91.9673 124.425 72.2901C158.507 52.6128 192.432 40.2055 219.705 36.0266C233.344 33.9366 245.266 33.9131 254.692 36.0291C264.117 38.1449 270.944 42.3716 274.6 48.7036Z" stroke="#FC501E" stroke-width="2"/>
</svg>
