<svg width="152" height="46" viewBox="0 0 152 46" fill="none" xmlns="http://www.w3.org/2000/svg">
<path d="M12.0244 36.9528C12.0244 42.9842 9.01475 45.9999 2.99554 45.9999H0V38.9067H1.77201C2.47519 38.9067 2.98148 38.7651 3.29088 38.4819C3.60028 38.1988 3.75497 37.7315 3.75497 37.0803V10.7884H12.0244V36.9528Z" fill="#333333"/>
<path d="M39.3066 22.4265C39.3066 23.0778 39.2644 23.729 39.18 24.3803H23.5273C23.6116 25.6829 23.9632 26.6598 24.582 27.3111C25.229 27.934 26.0446 28.2455 27.0291 28.2455C28.4073 28.2455 29.3918 27.6225 29.9824 26.3766H38.8003C38.4347 28.019 37.7174 29.4914 36.6486 30.794C35.6079 32.0682 34.2859 33.0735 32.6827 33.8097C31.0794 34.5459 29.3074 34.914 27.3666 34.914C25.0321 34.914 22.9507 34.4185 21.1224 33.4274C19.3223 32.4364 17.9018 31.0205 16.8611 29.18C15.8485 27.3394 15.3423 25.1732 15.3423 22.6813C15.3423 20.1895 15.8485 18.0374 16.8611 16.2252C17.8737 14.3846 19.2801 12.9688 21.0802 11.9777C22.9085 10.9866 25.0039 10.4911 27.3666 10.4911C29.7012 10.4911 31.7685 10.9725 33.5687 11.9352C35.3688 12.898 36.7752 14.2855 37.7877 16.0977C38.8003 17.8817 39.3066 19.9913 39.3066 22.4265ZM30.8684 20.3452C30.8684 19.3258 30.5309 18.533 29.8559 17.9666C29.1808 17.372 28.337 17.0747 27.3244 17.0747C26.3118 17.0747 25.4821 17.3578 24.8352 17.9242C24.1882 18.4622 23.7663 19.2692 23.5695 20.3452H30.8684Z" fill="#333333"/>
<path d="M41.3406 22.6813C41.3406 20.2178 41.8469 18.0657 42.8595 16.2252C43.8721 14.3846 45.2784 12.9688 47.0786 11.9777C48.9068 10.9866 50.9883 10.4911 53.3228 10.4911C56.3324 10.4911 58.8639 11.3264 60.9171 12.9971C62.9704 14.6394 64.2924 16.9472 64.8831 19.9205H56.1074C55.6011 18.3631 54.6167 17.5844 53.154 17.5844C52.1133 17.5844 51.2836 18.0233 50.6648 18.9011C50.0741 19.7506 49.7788 21.0107 49.7788 22.6813C49.7788 24.352 50.0741 25.6262 50.6648 26.504C51.2836 27.3819 52.1133 27.8208 53.154 27.8208C54.6448 27.8208 55.6292 27.0421 56.1074 25.4847H64.8831C64.2924 28.4296 62.9704 30.7374 60.9171 32.408C58.8639 34.0787 56.3324 34.914 53.3228 34.914C50.9883 34.914 48.9068 34.4185 47.0786 33.4274C45.2784 32.4364 43.8721 31.0205 42.8595 29.18C41.8469 27.3394 41.3406 25.1732 41.3406 22.6813Z" fill="#333333"/>
<path d="M83.1273 34.6167L76.5877 24.8475V34.6167H68.3183V3.18542H76.5877V20.1328L83.1273 10.7884H93.0421L83.7179 22.7663L93.2108 34.6167H83.1273Z" fill="#333333"/>
<path d="M103.905 14.9934C104.833 13.6342 105.958 12.5582 107.28 11.7653C108.602 10.9725 110.022 10.576 111.541 10.576V19.4532H109.221C107.42 19.4532 106.084 19.8072 105.212 20.5151C104.341 21.223 103.905 22.4548 103.905 24.2104V34.6167H95.6352V10.7884H103.905V14.9934Z" fill="#333333"/>
<path d="M113.156 22.6813C113.156 20.2178 113.591 18.0657 114.463 16.2252C115.364 14.3846 116.573 12.9688 118.092 11.9777C119.639 10.9866 121.355 10.4911 123.239 10.4911C124.87 10.4911 126.277 10.8167 127.458 11.468C128.64 12.1193 129.554 12.9971 130.201 14.1014V10.7884H138.47V34.6167H130.201V31.3037C129.554 32.408 128.625 33.2858 127.416 33.9371C126.235 34.5884 124.842 34.914 123.239 34.914C121.355 34.914 119.639 34.4185 118.092 33.4274C116.573 32.4364 115.364 31.0205 114.463 29.18C113.591 27.3111 113.156 25.1449 113.156 22.6813ZM130.201 22.6813C130.201 21.1522 129.779 19.9488 128.935 19.071C128.119 18.1932 127.107 17.7543 125.897 17.7543C124.66 17.7543 123.633 18.1932 122.817 19.071C122.002 19.9205 121.594 21.1239 121.594 22.6813C121.594 24.2104 122.002 25.428 122.817 26.3342C123.633 27.212 124.66 27.6509 125.897 27.6509C127.107 27.6509 128.119 27.212 128.935 26.3342C129.779 25.4563 130.201 24.2387 130.201 22.6813Z" fill="#333333"/>
<path d="M147.19 34.9565C145.728 34.9565 144.546 34.56 143.646 33.7672C142.774 32.946 142.338 31.9125 142.338 30.6665C142.338 29.4206 142.774 28.3871 143.646 27.5659C144.546 26.7447 145.728 26.3341 147.19 26.3341C148.625 26.3341 149.778 26.7447 150.65 27.5659C151.55 28.3871 152 29.4206 152 30.6665C152 31.8841 151.55 32.9035 150.65 33.7247C149.778 34.5459 148.625 34.9565 147.19 34.9565Z" fill="#FC501E"/>
<path d="M4.34575 7.3906C5.24582 8.18347 6.42716 8.5799 7.88978 8.5799C9.32426 8.5799 10.4775 8.18347 11.3494 7.3906C12.2495 6.56943 12.6995 5.55003 12.6995 4.33242C12.6995 3.0865 12.2495 2.05295 11.3494 1.23177C10.4775 0.41059 9.32426 0 7.88978 0C6.42716 0 5.24582 0.41059 4.34575 1.23177C3.47381 2.05295 3.03784 3.0865 3.03784 4.33242C3.03784 5.55003 3.47381 6.56943 4.34575 7.3906Z" fill="#FC501E"/>
</svg>
