<svg width="758" height="614" viewBox="0 0 758 614" fill="none" xmlns="http://www.w3.org/2000/svg">
<g id="nature">
<path id="stem" d="M322.284 431.114L322.786 320.126" stroke="#3F3D56" stroke-width="2" stroke-miterlimit="10"/>
<path id="stem_2" d="M63.059 423.503L66.5804 197.553" stroke="#3F3D56" stroke-width="2" stroke-miterlimit="10"/>
<g id="grand_flower">
<path id="Vector" d="M16.4399 336.924C25.1082 336.924 32.1353 329.897 32.1353 321.228C32.1353 312.56 25.1082 305.533 16.4399 305.533C7.77162 305.533 0.744568 312.56 0.744568 321.228C0.744568 329.897 7.77162 336.924 16.4399 336.924Z" fill="#3F3D56"/>
<path id="Vector_2" d="M63.1262 419.189C63.1262 419.189 74.66 326.621 16.4399 321.228" stroke="#3F3D56" stroke-width="2" stroke-miterlimit="10"/>
</g>
<g id="big_full_sircles">
<path id="Vector_3" d="M322.839 381.649C356.631 381.649 384.024 354.255 384.024 320.463C384.024 286.671 356.631 259.277 322.839 259.277C289.047 259.277 261.653 286.671 261.653 320.463C261.653 354.255 289.047 381.649 322.839 381.649Z" fill="#6C63FF"/>
<path id="Vector_4" d="M66.5235 258.806C100.315 258.806 127.709 231.413 127.709 197.621C127.709 163.829 100.315 136.435 66.5235 136.435C32.7316 136.435 5.33777 163.829 5.33777 197.621C5.33777 231.413 32.7316 258.806 66.5235 258.806Z" fill="#6C63FF"/>
<path id="Vector_5" d="M198.103 122.971C231.895 122.971 259.289 95.5772 259.289 61.7853C259.289 27.9933 231.895 0.599518 198.103 0.599518C164.311 0.599518 136.917 27.9933 136.917 61.7853C136.917 95.5772 164.311 122.971 198.103 122.971Z" fill="#6C63FF"/>
</g>
<path id="stem_3" d="M198.141 432.216V62.01" stroke="#3F3D56" stroke-width="2" stroke-miterlimit="10"/>
<path id="leaf" d="M65 313C65 313 67.4186 264.857 117 270.453Z" fill="#3F3D56"/>
<path id="leaf_2" d="M198.141 218.719C198.141 218.719 195.899 170.494 149.934 176.1Z" fill="#3F3D56"/>
<g id="grand_flower_2">
<path id="Vector_6" d="M149.934 345.376C158.602 345.376 165.63 338.349 165.63 329.68C165.63 321.012 158.602 313.985 149.934 313.985C141.266 313.985 134.239 321.012 134.239 329.68C134.239 338.349 141.266 345.376 149.934 345.376Z" fill="#3F3D56"/>
<path id="Vector_7" d="M198.141 427.901C198.141 427.901 208.231 334.165 149.934 329.68" stroke="#3F3D56" stroke-width="2" stroke-miterlimit="10"/>
</g>
<g id="grand_flower_3">
<path id="Vector_8" d="M246.311 235.148C254.98 235.148 262.007 228.121 262.007 219.452C262.007 210.784 254.98 203.757 246.311 203.757C237.643 203.757 230.616 210.784 230.616 219.452C230.616 228.121 237.643 235.148 246.311 235.148Z" fill="#3F3D56"/>
<path id="Vector_9" d="M198.104 312.673C198.104 312.673 188.014 223.937 246.311 219.452" stroke="#3F3D56" stroke-width="2" stroke-miterlimit="10"/>
</g>
<g id="empty__circles">
<path id="Vector_10" d="M348 158C343.649 158 339.395 156.71 335.777 154.292C332.16 151.875 329.34 148.439 327.675 144.419C326.01 140.399 325.574 135.976 326.423 131.708C327.272 127.44 329.367 123.52 332.444 120.444C335.52 117.367 339.44 115.272 343.708 114.423C347.976 113.574 352.399 114.01 356.419 115.675C360.439 117.34 363.875 120.16 366.292 123.777C368.71 127.395 370 131.649 370 136C369.993 141.833 367.673 147.425 363.549 151.549C359.425 155.673 353.833 157.993 348 158V158ZM348 116C344.044 116 340.178 117.173 336.889 119.371C333.6 121.568 331.036 124.692 329.522 128.346C328.009 132.001 327.613 136.022 328.384 139.902C329.156 143.781 331.061 147.345 333.858 150.142C336.655 152.939 340.219 154.844 344.098 155.616C347.978 156.387 351.999 155.991 355.654 154.478C359.308 152.964 362.432 150.4 364.629 147.111C366.827 143.822 368 139.956 368 136C367.994 130.698 365.885 125.614 362.135 121.865C358.386 118.115 353.302 116.006 348 116Z" fill="#3F3D56"/>
<path id="Vector_11" d="M34 70C29.6488 70 25.3954 68.7097 21.7775 66.2923C18.1596 63.8749 15.3398 60.439 13.6747 56.419C12.0095 52.3991 11.5739 47.9756 12.4227 43.708C13.2716 39.4404 15.3669 35.5204 18.4437 32.4437C21.5204 29.3669 25.4404 27.2716 29.708 26.4227C33.9756 25.5739 38.3991 26.0095 42.419 27.6747C46.439 29.3398 49.875 32.1596 52.2923 35.7775C54.7097 39.3953 56 43.6488 56 48C55.9934 53.8328 53.6735 59.4247 49.5491 63.5491C45.4247 67.6735 39.8328 69.9934 34 70V70ZM34 28C30.0444 28 26.1776 29.173 22.8886 31.3706C19.5996 33.5682 17.0362 36.6918 15.5224 40.3463C14.0087 44.0009 13.6126 48.0222 14.3843 51.9018C15.156 55.7814 17.0608 59.3451 19.8579 62.1421C22.6549 64.9392 26.2186 66.844 30.0982 67.6157C33.9778 68.3874 37.9992 67.9913 41.6537 66.4776C45.3082 64.9638 48.4318 62.4004 50.6294 59.1114C52.827 55.8224 54 51.9556 54 48C53.994 42.6975 51.8849 37.614 48.1355 33.8646C44.386 30.1152 39.3025 28.0061 34 28V28Z" fill="#3F3D56"/>
</g>
<path id="grand_circle" d="M199 614C306.143 614 393 527.143 393 420H5C5 527.143 91.8568 614 199 614Z" fill="#6C63FF"/>
<g id="girl">
<path id="Vector_12" d="M650.783 504.557C746.391 456.195 784.691 339.485 736.33 243.877L390.104 419.01C438.465 514.617 555.175 552.918 650.783 504.557Z" fill="#3F3D56"/>
<path id="Vector_13" d="M657.796 143.503C658.44 143.066 659.063 142.598 659.668 142.11C658.407 145.887 656.373 149.361 653.697 152.31V152.31C653.071 153 652.403 153.645 651.716 154.269C651.703 154.111 651.687 153.953 651.679 153.795C651.599 152.265 651.711 150.655 651.732 149.08C654.116 147.659 656.181 145.76 657.796 143.503V143.503Z" fill="url(#paint0_linear)"/>
<path id="Vector_14" d="M667.178 87.7108C668.633 85.258 669.473 82.4889 669.624 79.6408C669.775 76.7927 669.234 73.9504 668.046 71.3573C666.859 68.7641 665.06 66.4973 662.805 64.7511C660.55 63.0048 657.906 61.831 655.098 61.3303C652.29 60.8296 649.403 61.0167 646.683 61.8758C643.964 62.7349 641.493 64.2403 639.482 66.2632C637.471 68.286 635.981 70.7659 635.138 73.4907C634.296 76.2155 634.126 79.1039 634.643 81.9087C629.597 84.3118 625.374 88.1536 622.506 92.9507C619.638 97.7478 618.252 103.286 618.524 108.869C616.113 112.569 614.6 116.781 614.104 121.17C613.608 125.559 614.143 130.002 615.668 134.147C617.192 138.293 619.663 142.025 622.884 145.047C626.105 148.068 629.986 150.297 634.22 151.554C638.454 152.811 642.923 153.063 647.271 152.288C651.619 151.514 655.726 149.736 659.266 147.094C662.805 144.453 665.68 141.021 667.659 137.074C669.639 133.126 670.67 128.77 670.67 124.353C670.67 123.901 670.656 123.452 670.635 123.005C674.154 117.604 675.73 111.166 675.101 104.751C674.473 98.3357 671.678 92.3258 667.178 87.7108Z" fill="#2F2E41"/>
<g id="Group" opacity="0.1">
<path id="Vector_15" opacity="0.1" d="M634.409 77.4285C634.488 77.3898 634.564 77.3454 634.643 77.3074C634.587 77.0018 634.548 76.6911 634.508 76.381C634.499 76.4458 634.487 76.5094 634.479 76.5744C634.445 76.8605 634.43 77.1442 634.409 77.4285Z" fill="black"/>
<path id="Vector_16" opacity="0.1" d="M675.032 106.314C674.516 110.629 673.011 114.765 670.635 118.403C670.656 118.851 670.67 119.3 670.67 119.752C670.671 127.079 667.837 134.122 662.762 139.407C657.687 144.692 650.764 147.808 643.444 148.104C636.123 148.399 628.971 145.851 623.487 140.992C618.003 136.134 614.61 129.342 614.021 122.039C613.959 122.803 613.921 123.574 613.921 124.353C613.921 131.879 616.91 139.096 622.232 144.417C627.553 149.738 634.77 152.728 642.295 152.728C649.821 152.728 657.038 149.738 662.359 144.417C667.68 139.096 670.67 131.879 670.67 124.353C670.67 123.901 670.656 123.452 670.635 123.005C674.076 117.732 675.659 111.463 675.135 105.189C675.105 105.564 675.077 105.938 675.032 106.314Z" fill="black"/>
<path id="Vector_17" opacity="0.1" d="M669.506 76.3618C669.2 78.7465 668.407 81.0431 667.178 83.1096C667.674 83.6191 668.143 84.1531 668.599 84.6977C669.567 82.0322 669.878 79.1729 669.506 76.3618H669.506Z" fill="black"/>
</g>
<path id="Vector_18" d="M552.837 392.135C552.972 393.749 553.41 395.324 554.126 396.777C554.492 397.5 555.023 398.127 555.677 398.606C556.33 399.084 557.088 399.401 557.888 399.531C559.359 399.54 560.801 399.122 562.038 398.328C564.564 397.008 567.186 395.475 568.505 392.948C569.781 390.502 569.598 387.583 569.382 384.832L567.686 363.196C563.599 363.084 559.494 363.085 555.411 363.308C551.366 363.528 550.656 364.481 551.219 368.429C552.339 376.287 551.794 384.27 552.837 392.135Z" fill="#FBBEBE"/>
<path id="Vector_19" d="M672.729 406.758L682.453 422.468C682.871 423.382 683.63 424.095 684.568 424.456C685.266 424.557 685.977 424.434 686.6 424.103C689.843 422.686 692.325 419.995 694.706 417.377C696.322 415.601 697.993 413.727 698.599 411.404C698.913 410.144 698.899 408.825 698.559 407.571C698.219 406.318 697.564 405.173 696.657 404.244C695.521 403.256 694.293 402.379 692.991 401.624C685.304 396.44 681.835 386.59 674.247 381.262C673.809 380.899 673.275 380.669 672.71 380.601C672.146 380.634 671.601 380.817 671.131 381.131C667.673 383.026 664.215 384.922 660.757 386.817C656.265 389.274 657.689 389.563 661.1 392.21C666.125 396.109 669.264 401.56 672.729 406.758Z" fill="#FBBEBE"/>
<g id="girl_shoes">
<path id="Vector_20" d="M573.943 379.621C572.519 379.172 570.923 378.768 569.58 379.422C568.952 379.806 568.421 380.328 568.027 380.95C567.632 381.572 567.386 382.275 567.307 383.007C567.036 384.451 567.069 385.949 566.668 387.362C565.992 389.745 564.176 391.607 562.426 393.36C561.719 394.204 560.8 394.843 559.763 395.213C558.361 395.572 556.87 394.916 555.444 395.165C554.614 395.378 553.857 395.814 553.257 396.426C552.656 397.039 552.234 397.803 552.037 398.638C551.666 400.311 551.61 402.039 551.871 403.733L552.974 415.792C553.169 417.262 553.184 418.75 553.019 420.223C552.612 422.874 551.072 425.2 550.217 427.742C549.362 430.284 549.41 433.53 551.549 435.147C552.296 435.645 553.156 435.948 554.051 436.026C554.945 436.105 555.845 435.958 556.668 435.598C558.306 434.859 559.755 433.759 560.907 432.379C567.457 425.237 570.381 415.564 575.475 407.32C576.775 405.414 577.938 403.417 578.956 401.346C579.655 399.744 580.099 398.046 580.665 396.392C581.446 394.184 582.383 392.033 583.47 389.958C584.075 388.77 586.395 385.911 585.908 384.585C585.076 382.322 576.149 380.317 573.943 379.621Z" fill="#2F2E41"/>
<path id="Vector_21" d="M692.035 412.883C690.561 415.647 688.102 417.755 685.145 418.788C684.287 419.02 683.488 419.433 682.803 420C682.354 420.549 682.075 421.218 682.002 421.924C681.929 422.63 682.065 423.342 682.394 423.972C683.071 425.218 683.951 426.342 684.999 427.297C690.878 433.519 694.766 441.354 696.165 449.799C696.513 451.93 696.741 454.195 698.016 455.937C700.507 459.341 705.809 459.118 709.554 457.178C710.698 456.654 711.691 455.849 712.44 454.838C713.064 453.742 713.461 452.532 713.607 451.279C714.283 448.175 714.657 445.012 714.722 441.836C714.649 435.84 712.397 430.109 711.321 424.21C709.795 415.839 710.56 406.822 706.661 399.258C706.273 398.37 705.659 397.599 704.881 397.02C703.906 396.508 702.812 396.262 701.711 396.309C698.189 396.165 694.665 396.134 691.138 396.216C690.15 396.239 688.995 396.363 688.483 397.209C687.96 398.073 688.417 399.177 688.877 400.077C691.059 404.347 694.596 407.761 692.035 412.883Z" fill="#2F2E41"/>
</g>
<path id="gorl_pants" d="M608.371 262.835C607.386 263.648 606.719 264.782 606.485 266.037C606.252 267.293 606.468 268.591 607.095 269.703C607.876 270.997 609.277 272.202 608.97 273.681C608.651 275.218 606.763 275.739 605.213 275.986C591.558 278.158 578.269 282.155 565.029 286.142L551.142 290.323C547.137 291.529 543.063 292.767 539.603 295.116C536.428 297.279 533.916 300.281 532.345 303.787C530.757 307.347 530.211 311.268 529.644 315.124C527.559 329.316 524.896 343.648 518.563 356.519L552.246 367.563C555.512 368.762 558.894 369.613 562.339 370.103C565.622 370.376 568.927 370.216 572.168 369.627C571.959 362.106 571.832 354.358 571.623 346.837C571.601 344.461 571.446 342.089 571.161 339.731C570.655 336.126 569.537 332.62 569.189 328.997C570.742 327.716 573.001 328.034 575.014 328.093C579.609 328.227 584.095 326.63 588.182 324.524C592.268 322.419 596.068 319.795 600.132 317.646C606.902 314.065 614.602 311.657 619.771 306.005C617.138 316.038 610.919 324.781 609.716 335.085C608.5 345.495 612.737 355.682 616.884 365.307L630.135 396.06C631.598 399.455 633.547 403.272 637.154 404.082C639.402 404.586 641.72 403.743 643.806 402.766C656.003 397.054 665.76 386.316 678.782 382.882C677.812 376.433 672.716 371.102 669.831 365.254C667.397 360.322 666.602 354.768 664.98 349.512C663.359 344.257 660.572 338.931 655.672 336.433C653.346 335.247 650.211 334.215 649.994 331.613C649.979 330.777 650.156 329.949 650.512 329.192C652.257 324.801 654.966 320.858 658.438 317.654C658.885 317.31 659.243 316.862 659.48 316.35C659.609 315.843 659.635 315.316 659.558 314.798C659.312 310.611 661.554 306.694 664.055 303.327C666.557 299.96 669.446 296.755 670.857 292.805C673.281 286.013 670.875 278.549 668.478 271.747C667.509 268.998 666.49 266.163 664.499 264.034C661.379 260.694 656.518 259.732 651.975 259.234C637.284 257.623 620.045 253.772 608.371 262.835Z" fill="#2F2E41"/>
<g id="Group_2" opacity="0.1">
<path id="Vector_22" opacity="0.1" d="M606.842 264.866C607.336 264.766 607.794 264.534 608.168 264.197C608.543 263.859 608.82 263.427 608.97 262.945C609.008 262.757 609.02 262.564 609.004 262.372C608.793 262.526 608.579 262.674 608.372 262.835C607.696 263.37 607.17 264.07 606.842 264.866Z" fill="black"/>
</g>
<g id="girl_body">
<path id="Vector_23" d="M631.585 156.385C631.761 159.74 630.748 163.331 628.168 165.484C627.341 166.175 626.38 166.698 625.584 167.425C624.877 168.151 624.336 169.024 624 169.98C623.663 170.937 623.54 171.956 623.637 172.965C623.734 173.975 624.05 174.951 624.563 175.826C625.075 176.701 625.772 177.454 626.606 178.032C629.284 179.666 632.689 179.226 635.781 178.689C639.903 178.113 643.945 177.058 647.823 175.547C651.724 174.015 655.044 171.295 657.315 167.773C653.949 165.896 652.116 161.954 651.912 158.106C651.707 154.252 652.764 149.879 650.323 146.89C647.973 144.011 643.55 144.032 639.968 145.02C638.17 145.516 636.429 146.202 634.628 146.688C633.716 146.933 630.702 146.94 630.106 147.612C629.022 148.834 631.484 154.444 631.585 156.385Z" fill="#FBBEBE"/>
<path id="Vector_24" opacity="0.1" d="M631.585 156.385C631.761 159.74 630.748 163.331 628.168 165.484C627.341 166.175 626.38 166.698 625.584 167.425C624.877 168.151 624.336 169.024 624 169.98C623.663 170.937 623.54 171.956 623.637 172.965C623.734 173.975 624.05 174.951 624.563 175.826C625.075 176.701 625.772 177.454 626.606 178.032C629.284 179.666 632.689 179.226 635.781 178.689C639.903 178.113 643.945 177.058 647.823 175.547C651.724 174.015 655.044 171.295 657.315 167.773C653.949 165.896 652.116 161.954 651.912 158.106C651.707 154.252 652.764 149.879 650.323 146.89C647.973 144.011 643.55 144.032 639.968 145.02C638.17 145.516 636.429 146.202 634.628 146.688C633.716 146.933 630.702 146.94 630.106 147.612C629.022 148.834 631.484 154.444 631.585 156.385Z" fill="black"/>
<path id="Vector_25" d="M641.912 156.179C652.924 156.179 661.851 147.252 661.851 136.24C661.851 125.228 652.924 116.301 641.912 116.301C630.9 116.301 621.973 125.228 621.973 136.24C621.973 147.252 630.9 156.179 641.912 156.179Z" fill="#FBBEBE"/>
<path id="Vector_26" d="M578.951 289.213C578.593 290.788 577.957 292.287 577.074 293.64C574.749 297.77 573.909 302.572 574.694 307.247C575.115 309.565 576.099 311.744 577.561 313.591C579.023 315.439 580.916 316.898 583.075 317.841C584.942 318.576 587.254 318.77 588.793 317.483C586.129 314.018 585.988 309.287 586.147 304.92C586.101 304.104 586.296 303.293 586.707 302.587C586.816 302.419 586.959 302.276 587.126 302.165C587.293 302.054 587.481 301.979 587.678 301.944C587.876 301.909 588.078 301.915 588.273 301.961C588.468 302.008 588.652 302.093 588.812 302.213C588.744 304.964 589.276 307.696 590.37 310.22C590.791 311.191 591.512 312.263 592.57 312.235C594.088 312.196 594.498 310.14 594.441 308.622C594.206 302.438 593.903 295.997 590.922 290.574C589.831 288.589 588.376 286.725 587.962 284.498C587.942 283.726 587.675 282.98 587.199 282.372C586.871 282.113 586.487 281.935 586.078 281.849C584.361 281.364 580.298 279.854 578.882 281.462C577.363 283.186 579.226 287.152 578.951 289.213Z" fill="#FBBEBE"/>
<path id="Vector_27" d="M608.563 183.275C606.276 183.018 604.471 185.11 603.218 187.041C598.551 194.238 595.191 202.203 593.294 210.568C592.328 214.838 591.722 219.273 589.695 223.153C589.207 223.959 588.813 224.818 588.523 225.714C588.35 227.082 588.289 228.462 588.34 229.84C588.129 232.332 586.657 234.545 586.163 236.996C585.868 238.457 585.928 239.969 585.666 241.436C585.207 244.005 583.795 246.29 582.892 248.739C581.302 253.051 581.316 257.784 580.146 262.228C580.003 262.96 579.686 263.648 579.222 264.232C578.429 265.104 577.16 265.317 576.123 265.875C575.306 266.375 574.606 267.043 574.069 267.836C573.532 268.629 573.171 269.527 573.01 270.471C572.7 272.358 572.664 274.28 572.904 276.178L573.82 287.972C574.765 287.576 575.382 286.507 576.169 285.852C577.611 284.653 579.728 284.922 581.573 285.256L584.26 285.743C587.009 286.242 589.998 286.877 591.761 289.043C593.162 286.852 592.361 283.623 594.515 282.165C595.215 281.691 596.083 281.53 596.821 281.118C597.517 280.668 598.093 280.057 598.502 279.336C598.91 278.616 599.139 277.808 599.168 276.98C599.21 275.326 598.982 273.676 598.493 272.095C601.945 270.637 604.086 267.142 605.436 263.647C606.922 259.417 607.997 255.053 608.647 250.617C611.765 233.09 614.615 215.437 614.898 197.637C615.095 194.66 614.766 191.671 613.927 188.807C612.945 185.997 611.521 183.608 608.563 183.275Z" fill="#D0CDE1"/>
<path id="Vector_28" d="M658.83 164.187C655.539 167.639 651.332 170.082 646.703 171.23C642.098 172.363 637.396 173.055 632.661 173.299C631.204 173.543 629.71 173.413 628.317 172.924C626.979 172.317 625.961 170.732 626.506 169.366C626.77 168.944 626.948 168.474 627.03 167.983C627.007 166.769 625.22 166.668 624.059 167.027C616.384 169.401 609.023 174.102 605.48 181.313C603.479 185.387 602.819 189.967 602.185 194.461C600.516 206.281 598.852 218.357 601.088 230.083C602.281 236.335 604.575 242.43 604.718 248.793C604.799 252.359 604.197 255.911 604.225 259.478C604.119 260.727 604.453 261.974 605.17 263.003C605.722 263.644 606.555 264.049 606.94 264.802C607.584 266.063 606.724 267.793 607.571 268.926C608.615 270.322 610.796 269.32 612.234 268.335C619.469 263.422 628.208 261.222 636.907 262.124C647.357 263.246 657.741 268.815 667.875 266.032C667.354 265.271 666.903 264.463 666.53 263.619C661.477 247.013 661.819 228.451 669.382 212.827C671.966 207.489 675.395 202.402 676.385 196.555C676.784 193.82 676.815 191.044 676.478 188.301C675.946 182.993 674.682 177.641 671.797 173.154C668.912 168.666 664.139 164.712 658.83 164.187Z" fill="#D0CDE1"/>
<path id="Vector_29" d="M610.592 294.344C609.78 296.513 609.391 298.816 609.444 301.131C609.369 303.345 609.479 305.562 609.774 307.757C609.943 309.634 610.612 311.431 611.711 312.962C612.273 313.716 613.046 314.285 613.932 314.6C614.818 314.915 615.777 314.961 616.689 314.732C617.406 314.434 618.048 313.979 618.567 313.402C619.087 312.824 619.471 312.138 619.692 311.393C620.121 309.903 620.436 308.383 620.634 306.846C621.508 302.32 623.885 298.072 623.926 293.463C623.959 292.917 623.873 292.369 623.672 291.859C622.808 289.965 618.573 287.839 616.504 288.158C613.915 288.557 611.531 292.156 610.592 294.344Z" fill="#FBBEBE"/>
<path id="Vector_30" opacity="0.1" d="M668.131 181.02C667.737 184.984 671.572 187.972 673.088 191.657C673.708 193.377 674.061 195.181 674.134 197.008C675.199 209.684 674.372 222.434 673.544 235.127C673.393 239.353 672.869 243.557 671.978 247.691C669.838 256.365 664.573 263.885 659.413 271.179C657.64 274.103 654.928 276.34 651.72 277.524L634.017 286.1C631.798 287.079 629.69 288.291 627.728 289.716C625.45 291.501 623.66 293.832 622.523 296.493C619.088 294.738 615.522 293.163 612.087 291.407C611.283 290.997 610.384 290.461 610.245 289.569C610.059 288.372 611.31 287.526 612.171 286.675C613.782 285.081 614.279 282.719 615.151 280.627C618 273.795 625.166 269.421 627.751 262.484C628.744 259.818 629.048 256.806 630.809 254.572C631.817 253.452 632.95 252.451 634.187 251.591C636.916 249.274 639.423 246.708 641.675 243.925C642.687 242.875 643.514 241.663 644.124 240.339C644.898 238.37 644.666 236.175 644.706 234.06C644.838 227.136 647.969 220.679 649.885 214.024C651.69 207.758 652.443 201.184 654.811 195.107C657.179 189.031 661.818 182.654 668.131 181.02Z" fill="black"/>
<path id="Vector_31" d="M670.432 181.02C670.037 184.984 673.872 187.972 675.388 191.657C676.008 193.377 676.361 195.181 676.435 197.008C677.5 209.684 676.673 222.434 675.845 235.127C675.694 239.353 675.17 243.557 674.279 247.691C672.138 256.365 666.873 263.885 661.714 271.179C659.941 274.103 657.229 276.34 654.021 277.524L636.317 286.1C634.099 287.079 631.991 288.291 630.029 289.716C627.751 291.501 625.961 293.832 624.823 296.493C621.389 294.738 617.822 293.163 614.388 291.407C613.584 290.997 612.685 290.461 612.546 289.569C612.36 288.372 613.611 287.526 614.472 286.675C616.082 285.081 616.579 282.719 617.451 280.627C620.301 273.795 627.466 269.421 630.051 262.484C631.045 259.818 631.348 256.806 633.11 254.572C634.117 253.452 635.251 252.451 636.487 251.591C639.217 249.274 641.724 246.708 643.976 243.925C644.987 242.875 645.815 241.663 646.425 240.339C647.198 238.37 646.967 236.175 647.007 234.06C647.139 227.136 650.269 220.679 652.186 214.024C653.991 207.758 654.744 201.184 657.112 195.107C659.479 189.031 664.118 182.654 670.432 181.02Z" fill="#D0CDE1"/>
<path id="Vector_32" d="M651.8 105.416C645.656 104.666 639.436 105.953 634.096 109.082C634.883 109.111 635.673 109.165 636.469 109.261C642.369 109.973 647.897 112.521 652.272 116.543C656.647 120.566 659.648 125.861 660.852 131.681C662.056 137.501 661.402 143.552 658.982 148.98C656.562 154.408 652.499 158.94 647.366 161.935C654.68 162.201 661.814 159.631 667.278 154.761C672.741 149.891 676.111 143.098 676.684 135.802C677.256 128.505 674.987 121.27 670.349 115.607C665.712 109.945 659.066 106.293 651.8 105.416V105.416Z" fill="#2F2E41"/>
<path id="Vector_33" d="M660.528 121.19C661.217 122.75 661.592 124.431 661.63 126.137C661.669 127.842 661.37 129.538 660.752 131.128C660.618 130.717 660.463 130.313 660.287 129.918C656.78 122.114 645.976 118.884 636.156 122.703C630.371 124.953 626.22 129.148 624.501 133.811C622 126.267 627.079 117.599 636.397 113.975C646.217 110.156 657.021 113.386 660.528 121.19Z" fill="#2F2E41"/>
<g id="Group_3" opacity="0.1">
<path id="Vector_34" opacity="0.1" d="M660.583 130.509C660.129 125.032 658.097 119.804 654.731 115.459C651.365 111.114 646.812 107.839 641.622 106.031C638.98 106.681 636.445 107.709 634.096 109.082C634.883 109.111 635.673 109.165 636.469 109.261C642.165 109.95 647.519 112.349 651.824 116.142C656.129 119.936 659.183 124.945 660.583 130.509V130.509Z" fill="black"/>
<path id="Vector_35" opacity="0.1" d="M665.184 109.803C664.731 104.326 662.698 99.0985 659.332 94.7536C655.967 90.4088 651.413 87.1336 646.223 85.3251C643.581 85.9757 641.046 87.0032 638.697 88.3761C639.484 88.4055 640.275 88.4592 641.07 88.5554C646.767 89.2442 652.12 91.6435 656.425 95.4368C660.73 99.2301 663.784 104.239 665.184 109.803V109.803Z" fill="black"/>
<path id="Vector_36" opacity="0.1" d="M665.301 78.8772C665.028 75.5716 663.801 72.4166 661.77 69.7944C659.739 67.1722 656.99 65.1956 653.858 64.1042C652.264 64.4968 650.734 65.1169 649.316 65.9454C649.791 65.9632 650.268 65.9956 650.748 66.0536C654.186 66.4693 657.417 67.9173 660.015 70.2066C662.613 72.496 664.456 75.519 665.301 78.8772V78.8772Z" fill="black"/>
<path id="Vector_37" opacity="0.1" d="M675.914 126.665C676.465 133.469 674.547 140.244 670.51 145.75C666.474 151.255 660.589 155.122 653.933 156.642C652.018 158.721 649.805 160.505 647.366 161.935C651.765 162.095 656.141 161.23 660.148 159.407C664.155 157.585 667.683 154.854 670.453 151.433C673.222 148.011 675.157 143.992 676.105 139.693C677.053 135.394 676.987 130.934 675.914 126.665V126.665Z" fill="black"/>
</g>
</g>
<path id="Vector_38" d="M587.656 308.469L583.987 197.541" stroke="#6C63FF" stroke-width="2" stroke-miterlimit="10"/>
<path id="girl_leaf" d="M586.248 265.908C586.248 265.908 582.413 217.784 536.658 224.906Z" fill="#6C63FF"/>
</g>
<g id="full_circles">
<path id="Vector_39" d="M322.786 335.821C331.454 335.821 338.481 328.794 338.481 320.126C338.481 311.458 331.454 304.431 322.786 304.431C314.117 304.431 307.09 311.458 307.09 320.126C307.09 328.794 314.117 335.821 322.786 335.821Z" fill="#3F3D56"/>
<path id="Vector_40" d="M66.5804 213.248C75.2487 213.248 82.2757 206.221 82.2757 197.553C82.2757 188.885 75.2487 181.858 66.5804 181.858C57.9121 181.858 50.885 188.885 50.885 197.553C50.885 206.221 57.9121 213.248 66.5804 213.248Z" fill="#3F3D56"/>
<path id="Vector_41" d="M198.141 77.53C206.81 77.53 213.837 70.5029 213.837 61.8346C213.837 53.1663 206.81 46.1393 198.141 46.1393C189.473 46.1393 182.446 53.1663 182.446 61.8346C182.446 70.5029 189.473 77.53 198.141 77.53Z" fill="#3F3D56"/>
<path id="Vector_42" d="M447 233C454.18 233 460 227.18 460 220C460 212.82 454.18 207 447 207C439.82 207 434 212.82 434 220C434 227.18 439.82 233 447 233Z" fill="#3F3D56"/>
<path id="girl_flower" d="M583.987 213.236C592.655 213.236 599.682 206.209 599.682 197.541C599.682 188.873 592.655 181.846 583.987 181.846C575.318 181.846 568.291 188.873 568.291 197.541C568.291 206.209 575.318 213.236 583.987 213.236Z" fill="#6C63FF"/>
</g>
<path id="key" d="M394 435C401.18 435 407 429.18 407 422C407 414.82 401.18 409 394 409C386.82 409 381 414.82 381 422C381 429.18 386.82 435 394 435Z" fill="#3F3D56"/>
</g>
<defs>
<linearGradient id="paint0_linear" x1="655.66" y1="154.269" x2="655.66" y2="142.11" gradientUnits="userSpaceOnUse">
<stop stop-color="#808080" stop-opacity="0.25"/>
<stop offset="0.53514" stop-color="#808080" stop-opacity="0.12"/>
<stop offset="1" stop-color="#808080" stop-opacity="0.1"/>
</linearGradient>
</defs>
</svg>
